<?xml version="1.0" standalone="no"?><!DOCTYPE svg PUBLIC "-//W3C//DTD SVG 1.1//EN" "http://www.w3.org/Graphics/SVG/1.1/DTD/svg11.dtd"><svg t="1498096682498" class="icon" style="" viewBox="0 0 1024 1024" version="1.1" xmlns="http://www.w3.org/2000/svg" p-id="6755" xmlns:xlink="http://www.w3.org/1999/xlink" width="180" height="180"><defs><style type="text/css">@font-face { font-family: uc-nexus-iconfont; src: url("chrome-extension://pogijhnlcfmcppgimcaccdkmbedjkmhi/res/font_9qmmi8b8jsxxbt9.woff") format("woff"), url("chrome-extension://pogijhnlcfmcppgimcaccdkmbedjkmhi/res/font_9qmmi8b8jsxxbt9.ttf") format("truetype"); }
</style></defs><path d="M958.957811 172.903563c0-6.638499 0-13.293987-0.391734-19.9115-2.626219-44.451662-44.658522-84.169733-89.183334-84.190719-118.450291-0.052964-236.901781-0.015989-355.352071-0.015989l0 0.28081c-119.562137 0-239.124274-0.07395-358.686411 0.031978-48.83529 0.041972-90.935546 42.856743-90.384919 91.464787 0.200864 17.703997 0.402327 35.418986 0.396731 53.123782-0.079346 164.928778 1.244156 329.869548-1.095657 494.767348-0.858018 59.921173 52.0645 103.960315 100.359756 99.024661 19.165406-1.958672 38.70156-0.22185 58.079022-0.168885 7.379996 0.020986 12.992591 0.529641 10.95897 11.15044-2.864058 14.929878-4.61627 30.155355-5.64857 45.341059-1.138828 16.760636 8.624553 28.822259 19.054081 40.76636 5.410931 6.204793 9.01129 14.220159 12.431571 21.854183 1.964268 4.405013 0.645562 10.536856 3.144868 14.348272 2.572656 3.918343 7.888052 7.867666 12.218716 8.132486 2.827483 0.158892 9.090836-6.724441 8.609163-9.582503-3.409688-20.363194 7.681792-27.66924 24.968072-30.887858 3.663516-0.688533 7.015244-3.197832 10.429929-5.018597 40.538915-21.591361 72.902972-53.198731 105.198875-85.048137 5.346775-5.284417 13.823628-10.166107 20.997164-10.367971 39.268176-1.122239 78.594513-1.206182 117.867886-0.41272 7.302049 0.148899 15.730335 4.447984 21.495426 9.35066 21.018749 17.851896 40.517529 37.516564 61.742938 55.10344 21.706283 17.989803 45.283098 33.630199 72.531624 42.206184 20.659993 6.511585 20.485111 5.982944 19.029098 27.753183-0.269817 4.034265 2.339414 10.261043 5.51626 11.97588 3.547595 1.9167 11.192412 1.640887 13.531825-0.910383 3.176846-3.462652 3.134875-9.964244 4.236128-15.215684 2.127558-10.113143 0.69353-23.496869 6.713448-29.839569 24.512381-25.82549 24.756215-55.357468 17.090413-86.414211-3.134875-12.706385 1.366074-14.316294 12.054827-14.104437 22.115006 0.433706 44.286774-0.932368 66.353812 0.1479 51.672966 2.509299 97.087974-47.288738 96.516362-98.421071C957.750629 530.468334 958.978796 351.677954 958.957811 172.903563zM330.872852 870.587933c-11.562561 8.799034-25.708969 15.046798-39.590957 19.790582-22.474163 7.687788-40.205141-5.284417-42.301719-29.076086-0.285806-3.282774-0.042371-6.617513-0.042371-9.921273 0.174881-29.743634 16.264373-51.99155 35.408993-72.225831 23.951161-25.328827 54.48446-41.306994 86.228737-53.971208 28.531656-11.393275 58.349239-19.599711 87.732717-28.79048 4.500349-1.408045 9.783767-1.090261 14.6015-0.571612 9.519546 1.027303 12.420979 6.787398 8.349939 15.152726-4.817734 9.900288-9.202161 20.372188-15.89922 28.93838C426.542188 789.574061 380.915124 832.51075 330.872852 870.587933zM463.506926 777.281395c15.068184-22.491751 27.869504-41.603793 40.904067-61.044412 13.547815 19.737618 26.456063 38.542668 41.899392 61.044412L463.506926 777.281395zM764.056554 875.34271c-7.745748 17.090413-22.473763 22.755372-40.63445 16.899542-29.033315-9.360653-52.69907-27.265514-74.782098-47.163023-27.83213-25.083993-55.448206-50.539534-81.378625-77.540228-14.338279-14.929878-26.250202-32.601896-37.028894-50.381641-8.958926-14.769986-2.563262-22.955436 15.193699-23.770883 20.182316 5.421324 40.618261 10.038194 60.492786 16.422865 33.651184 10.821663 66.693582 23.560026 95.907775 43.922021 27.409416 19.102049 51.349985 41.581808 61.805896 74.894022C768.504338 844.136867 771.135754 859.703313 764.056554 875.34271zM931.623543 453.870468c-0.031978 85.218022-0.216853 170.435045-0.359756 255.642075-0.047967 30.824101-13.263008 53.631438-42.778996 64.020394-11.648103 4.108215-24.936093 4.679827-37.499575 4.806741-26.937536 0.26482-53.918243-0.33877-80.833995-1.672866-6.391666-0.317785-14.073458-3.356724-18.615379-7.77273-54.490056-52.900933-122.257909-77.688127-194.737568-91.867514-15.91421-3.112889-33.195493-3.727473-47.113857 9.465582-1.937686 1.842751-9.148797 1.229167-11.436246-0.89939-13.098119-12.250694-29.404464-11.764024-44.027549-8.428286-67.868385 15.512483-133.634596 36.879995-183.041898 89.506115-14.627483 15.586432-31.559003 10.620799-47.558555 11.764024-21.887161 1.556944-44.027949-0.603591-66.063009-1.079268-38.161526-0.805454-64.220858-26.842801-64.273822-64.887806-0.137507-91.306894-0.042371-182.612789-0.042371-273.919483-0.031579 0-0.052964 0-0.084343 0 0-91.284909 0.82584-182.58081-0.41332-273.854726-0.481673-35.314057 30.845487-67.281183 62.156258-66.275865 31.469664 1.006318 62.992091 0.116921 94.493134 0.005996 81.21014-0.28081 162.419879-0.842429 243.624623-0.815447 102.28685 0.036975 204.574299 0.54563 306.860748 0.862415 22.078031 0.074949 44.15986-0.020986 66.237891 0.333774 38.161926 0.61958 65.078677 27.382435 65.247562 66.163941C931.787432 261.267453 931.660318 357.565962 931.623543 453.870468zM801.408029 326.21222c-25.814498-22.320866-55.822952-37.388451-88.203998-46.84404-18.338566-5.358367-37.843142-7.121172-56.966177-9.111822-4.331064-0.449695-9.270714 4.876694-13.935552 7.544885 4.14519 3.414685 7.814702 7.930623 12.548492 9.964244 6.161822 2.636213 13.172069 3.292768 19.810568 4.806741 0 1.50398 0 3.006961 0 4.510942-4.912669 3.430674-9.773374 6.935298-14.739007 10.282029-34.752438 23.417123-49.147478 70.742836-32.862719 108.120494 21.745257 49.904964 66.788517 68.075645 115.740328 51.006218 41.793464-14.581114 63.077034-45.690822 58.587078-95.679929-0.614583-6.892327-1.292124-10.948577 7.275068-13.183062 12.451558-3.250796 13.579793-8.232418 5.522256-18.54043C810.482877 334.355699 805.972934 330.162542 801.408029 326.21222zM644.265972 358.974008c0.450694-8.423289 10.361975-17.947831 18.843224-18.106724 10.292022-0.190871 18.848221 8.418292 18.842225 18.95315 0 11.235382-7.384993 18.387533-18.969139 18.372543C653.505707 378.181985 643.774305 368.186761 644.265972 358.974008zM675.41885 444.171044c-12.372611-0.190871-23.755894-13.173069-23.733908-27.075643 0.020986-13.500846 12.186737-25.391784 25.533688-24.958078 12.060823 0.386738 23.502066 12.675406 23.576015 25.317835C700.884384 432.575906 689.66619 444.377904 675.41885 444.171044zM740.799322 423.80885c-20.479115-0.629573-37.887113-20.542072-37.378657-42.747018 0.518648-22.416801 21.272577-41.931371 43.593444-40.999203 20.197306 0.846426 39.708078 22.575694 39.332133 43.8051C785.927525 407.496909 766.427946 424.597315 740.799322 423.80885zM340.132974 301.594111c-4.187561-2.917022-8.365328-5.85603-10.668167-7.464939 7.454346-7.687788 18.217648-14.698035 17.185348-18.488465-3.02295-11.048509-14.421622-5.506267-22.659637-5.934976-0.550627-0.025982-1.101253 0.100932-1.65188 0.142903-39.442658 3.160857-72.453277 22.120003-103.917344 43.795307-11.626517 8.005572-21.611747 18.853218-30.898051 29.658891-8.640142 10.05918-6.316118 16.581758 6.321114 17.830911 10.625796 1.059282 10.4723 6.141836 10.451314 14.290311-0.068953 34.328725 15.115152 60.423833 44.890364 77.398324 27.938458 15.925203 56.459121 17.148373 84.958198 0.952354C393.992257 419.7526 397.079164 341.211051 340.132974 301.594111zM226.404881 355.029682c-1.38706-8.476253 9.604488-19.647679 18.31858-19.583722 8.872984 0.062957 17.026856 8.715091 17.317659 18.376541 0.344367 11.235382-5.733513 17.652032-16.613736 17.699C234.229576 371.569468 228.099133 365.380664 226.404881 355.029682zM257.663088 436.372332c-12.46295 0.062957-25.62003-13.231029-25.402777-25.682587 0.238438-14.179386 11.181819-23.803861 26.50403-23.317191 14.474187 0.455691 22.839515 9.635467 22.617066 24.820172C281.180544 426.561983 271.623623 436.303378 257.663088 436.372332zM324.175793 417.667014c-21.632733 0.105928-39.908942-17.97981-40.168166-39.760842-0.28081-22.850507 17.587476-43.031625 39.453251-42.455015 24.682265 0.651558 40.396012 16.534789 42.015913 42.477001C366.620415 396.203566 344.998075 418.789253 324.175793 417.667014zM504.781942 557.194014c-37.457604 0.603591-63.150984 16.486822-83.883327 40.692411-4.415606 5.146511-3.685102 14.687042-5.326988 22.204945 6.671477-1.228167 13.537821-1.810772 19.97046-3.801423 19.345883-6.00293 38.119555-15.269647 57.878159-18.233638 26.248603-3.928337 50.820943 5.505267 73.682443 18.922171 3.975305 2.340413 9.523543 2.001643 14.347273 2.89104-0.746494-5.125525 0.115921-11.331317-2.494309-15.216683C560.298102 576.815711 536.08272 557.585749 504.781942 557.194014zM730.496308 499.284477c-2.393377 1.619902-7.201118 1.694851-9.975237 0.434705-20.806893-9.423611-28.991344-7.793716-44.519816 10.455911l72.791447 0c0.275813-1.539956 0.550627-3.085908 0.82644-4.63186C745.034451 498.903735 740.730369 492.328193 730.496308 499.284477zM274.149311 491.263915c-3.854387 1.053286-6.872341 5.172493-10.271036 7.883655 3.711484 1.492988 7.501914 4.405013 11.128855 4.209146 11.975281-0.640566 23.888204-2.409366 35.831706-3.743462 0.031978 0.295799 0.063957 0.592598 0.100932 0.894394 1.646284 0.094936 3.314153 0.428709 4.924061 0.237839 3.726873-0.438703 7.422368-1.132232 11.133452-1.719834-3.329742-2.398374-6.659885-4.801744-9.98463-7.206114C302.887226 481.65543 288.35428 487.36256 274.149311 491.263915z" p-id="6756" fill="#d6d4d4"></path></svg>