<?xml version="1.0" standalone="no"?><!DOCTYPE svg PUBLIC "-//W3C//DTD SVG 1.1//EN" "http://www.w3.org/Graphics/SVG/1.1/DTD/svg11.dtd"><svg t="1498034042678" class="icon" style="" viewBox="0 0 1159 1024" version="1.1" xmlns="http://www.w3.org/2000/svg" p-id="17998" xmlns:xlink="http://www.w3.org/1999/xlink" width="203.73046875" height="180"><defs><style type="text/css">@font-face { font-family: uc-nexus-iconfont; src: url("chrome-extension://pogijhnlcfmcppgimcaccdkmbedjkmhi/res/font_9qmmi8b8jsxxbt9.woff") format("woff"), url("chrome-extension://pogijhnlcfmcppgimcaccdkmbedjkmhi/res/font_9qmmi8b8jsxxbt9.ttf") format("truetype"); }
</style></defs><path d="M253.087485 806.264417c0-47.805414-38.967438-86.772852-86.371126-86.772852-47.805414 0-86.772852 38.967438-86.772852 86.772852 0 47.805414 38.967438 86.772852 86.772852 86.772853 47.805414 0 86.371126-38.967438 86.371126-86.772853zM166.716359 919.14947c-61.86583 0-112.483327 45.395057-121.321302 104.85053h242.642605c-8.837976-59.053747-59.857199-104.85053-121.321303-104.85053zM528.671636 806.264417c0-47.805414-38.967438-86.772852-86.772852-86.772852-47.805414 0-86.772852 38.967438-86.772852 86.772852 0 47.805414 38.967438 86.772852 86.772852 86.772853 47.805414 0 86.772852-38.967438 86.772852-86.772853zM441.898784 919.14947c-61.86583 0-112.483327 45.395057-121.321303 104.85053h242.642605c-8.837976-59.053747-59.455473-104.85053-121.321302-104.85053zM803.85406 806.264417c0-47.805414-38.565712-86.772852-86.772852-86.772852-47.805414 0-86.772852 38.967438-86.772852 86.772852 0 47.805414 38.967438 86.772852 86.772852 86.772853 48.20714 0 86.772852-38.967438 86.772852-86.772853zM717.482934 919.14947c-61.86583 0-112.885053 45.395057-121.321302 104.85053h242.642605c-8.837976-59.053747-59.857199-104.85053-121.321303-104.85053zM1079.438211 806.264417c0-47.805414-38.565712-86.772852-86.371126-86.772852s-86.772852 38.967438-86.772852 86.772852c0 47.805414 38.565712 86.772852 86.772852 86.772853 47.403688 0 86.371126-38.967438 86.371126-86.772853zM992.665359 919.14947c-61.86583 0-112.483327 45.395057-121.321303 104.85053h242.642605c-8.43625-59.053747-59.455473-104.85053-121.321302-104.85053zM579.690859 34.146724L0 0v669.275794l579.690859-24.505296 579.690859 24.505296V0L579.690859 34.146724z m509.790506 589.332287c-23.701844-1.205179-510.192232-21.291487-510.192232-21.291486S93.602197 622.675559 69.900353 623.479011V46.198509c24.10357 1.205179 510.593958 29.727736 510.593958 29.727737s484.883484-28.522558 508.987054-29.727737v577.280502z" p-id="17999" fill="#d7d7d4"></path></svg>