<?xml version="1.0" standalone="no"?><!DOCTYPE svg PUBLIC "-//W3C//DTD SVG 1.1//EN" "http://www.w3.org/Graphics/SVG/1.1/DTD/svg11.dtd"><svg t="1505290795014" class="icon" style="" viewBox="0 0 1000 1000" version="1.1" xmlns="http://www.w3.org/2000/svg" p-id="2904" xmlns:xlink="http://www.w3.org/1999/xlink" width="26" height="26"><defs><style type="text/css"></style></defs><path d="M632 698.9375c-48.4375 34-105.25 50.9375-163.1875 50.25-7.6875-0.125-15.25-0.6875-22.8125-1.25-3.0625-0.3125-6.125-0.8125-9.1875-1.25-6-0.75-11.8125-1.5-17.625-2.6875-3.5625-0.625-7.125-1.625-10.5625-2.4375-5.6875-1.25-11.3125-2.5-16.875-4.125-2.625-1-5.125-1.8125-7.75-2.875-6.4375-2-12.8125-4.25-18.9375-6.8125-1.375-0.625-2.75-1.125-4.125-1.6875-7.1875-3.3125-14.3125-6.6875-21.25-10.3125-0.25-0.1875-0.625-0.3125-0.875-0.5-23.375-12.875-44.6875-28.6875-63.4375-47.5625-0.3125-0.3125-0.5625-0.6875-0.9375-1-5.8125-5.8125-11.375-11.8125-16.625-18.3125-1.0625-1.3125-2.125-2.625-3.25-4.1875C216.5 596.5625 193.5625 536.25 193.5625 470.6875h73.375L149.625 294.75 32.3125 470.6875h73.25c0 77.0625 24.125 148.5625 64.9375 207.75 0.5 0.875 0.8125 1.8125 1.375 2.5625 4.1875 6.125 8.9375 11.6875 13.4375 17.3125 1.75 2.0625 3.25 4.1875 5.0625 6.5 6.625 8 13.8125 15.625 21.0625 23.125 0.75 0.75 1.375 1.375 2 2.0625 24.5625 24.625 52.25 45.25 82.4375 61.875 0.8125 0.4375 1.5 0.8125 2.4375 1.3125 8.6875 4.6875 17.625 9 26.625 12.9375 2.3125 1 4.5 2 6.6875 2.9375 7.8125 3.3125 15.75 6.0625 23.75 8.8125 3.8125 1.3125 7.5 2.5625 11.375 3.8125 7 2 14.125 3.8125 21.375 5.4375 4.8125 1.125 9.4375 2.375 14.375 3.25 2 0.5 3.875 1.125 5.875 1.3125 6.875 1.25 13.6875 1.875 20.4375 2.6875 2.5 0.4375 4.9375 0.875 7.375 1.125 12.25 1.1875 24.4375 1.9375 36.625 1.9375 74.4375 0 147.1875-22.75 209.5625-66.5 19.875-13.9375 24.75-41.4375 10.875-61.1875C679.25 689.6875 651.875 684.875 632 698.9375M838.625 470.6875c0-76.875-23.8125-148.3125-64.4375-207.1875-0.625-1-1-2.0625-1.5-2.9375-5.25-7.25-10.625-14-16.1875-20.8125-0.625-0.75-1.25-1.625-1.8125-2.5-37.375-45-84.0625-79.9375-136.875-102.75-1.5625-0.625-2.875-1.3125-4.4375-1.9375C604.875 129.0625 596.25 126.0625 587.4375 123.0625 584.4375 122.0625 581.25 120.9375 578.125 120 570.5 117.6875 562.875 115.8125 555.125 114 550.8125 113.0625 546.4375 111.9375 542.125 111.0625 540 110.6875 538.0625 110.0625 535.8125 109.625 530 108.6875 524.3125 108.125 518.5 107.4375 514.4375 107 510.5625 106.375 506.5 105.9375 496.75 105 487.0625 104.625 477.375 104.4375c-1.75 0-3.5-0.25-5.25-0.25-0.3125 0-0.625 0.0625-0.9375 0.125-74.375 0.0625-147 22.5-209.25 66.1875C242.0625 184.375 237.1875 211.8125 251.1875 231.8125 265 251.625 292.5625 256.5 312.5 242.5c48.0625-33.625 104.1875-50.75 161.75-50.1875 8.25 0.0625 16.5 0.4375 24.5 1.25C501.25 193.75 503.625 194.125 506.125 194.5c6.625 0.8125 13.1875 1.6875 19.6875 3.0625 2.8125 0.5 5.6875 1.25 8.375 1.875C540.625 200.875 546.875 202.375 553.0625 204.25 555.125 204.8125 557 205.5 558.875 206.25c7.1875 2.3125 14.1875 4.75 20.9375 7.625C580.5625 214.0625 581.25 214.625 581.9375 214.875c41.0625 17.625 77 44.75 105.125 78.75C687.125 293.75 687.25 294 687.5 294.1875c39.5 48.125 63.25 109.5625 63.3125 176.5h-73.4375l117.5 176 117.1875-176H838.625z" p-id="2905" fill="#495060"></path></svg>