<?xml version="1.0" standalone="no"?><!DOCTYPE svg PUBLIC "-//W3C//DTD SVG 1.1//EN" "http://www.w3.org/Graphics/SVG/1.1/DTD/svg11.dtd"><svg t="1497605354361" class="icon" style="" viewBox="0 0 1039 1024" version="1.1" xmlns="http://www.w3.org/2000/svg" p-id="6230" xmlns:xlink="http://www.w3.org/1999/xlink" width="44.64453125" height="44"><defs><style type="text/css">@font-face { font-family: uc-nexus-iconfont; src: url("chrome-extension://pogijhnlcfmcppgimcaccdkmbedjkmhi/res/font_9qmmi8b8jsxxbt9.woff") format("woff"), url("chrome-extension://pogijhnlcfmcppgimcaccdkmbedjkmhi/res/font_9qmmi8b8jsxxbt9.ttf") format("truetype"); }
</style></defs><path d="M519.861169 0C232.747323 0 0 229.218462 0 512 0 794.765785 232.747323 1024 519.861169 1024 806.990769 1024 1039.753846 794.765785 1039.753846 512 1039.753846 229.218462 806.975015 0 519.861169 0z m281.253416 551.683938l-35.4304-33.1776v261.513847H558.946462v-88.34757h102.510276v-34.563938H558.946462v-29.617231h102.510276v-34.579692h-82.109046l74.988308-112.2304-79.761723-0.661662-54.713108 81.778216-54.6816-81.778216-79.761723 0.661662 74.972554 112.2304h-82.093292v34.579692h102.52603v29.617231h-102.52603v34.563938h102.52603v88.34757h-202.909538V514.804185l-39.274338 36.879753-49.64037-46.20603c110.166646-103.345231 220.112738-206.942523 330.62597-309.909662l331.114338 309.909662-49.624615 46.20603z" p-id="6231" fill="#0e932e"></path></svg>