<?xml version="1.0" standalone="no"?><!DOCTYPE svg PUBLIC "-//W3C//DTD SVG 1.1//EN" "http://www.w3.org/Graphics/SVG/1.1/DTD/svg11.dtd"><svg t="1497262233484" class="icon" style="" viewBox="0 0 1029 1024" version="1.1" xmlns="http://www.w3.org/2000/svg" p-id="7974" xmlns:xlink="http://www.w3.org/1999/xlink" width="44.21484375" height="44"><defs><style type="text/css">@font-face { font-family: uc-nexus-iconfont; src: url("chrome-extension://pogijhnlcfmcppgimcaccdkmbedjkmhi/res/font_9qmmi8b8jsxxbt9.woff") format("woff"), url("chrome-extension://pogijhnlcfmcppgimcaccdkmbedjkmhi/res/font_9qmmi8b8jsxxbt9.ttf") format("truetype"); }
</style></defs><path d="M451.006334 303.347586c-6.416287 12.838854-12.837598 32.100274-12.837598 44.941639 0 12.838854 6.421311 25.676451 12.837598 38.520328 6.421311 12.838854 19.260164 25.676451 38.520328 32.099018L489.526662 277.666112C470.266498 284.087422 463.850211 290.508733 451.006334 303.347586L451.006334 303.347586zM560.149776 553.727209l0 160.502624c19.260164-6.420055 25.681475-12.838854 38.520328-25.680219 12.838854-12.840109 19.260164-32.100274 19.260164-51.360438s-6.421311-32.097762-19.260164-44.941639C592.248794 572.987374 585.832507 560.14852 560.149776 553.727209L560.149776 553.727209zM874.733714 149.267529c-199.022953-199.022953-526.444488-199.022953-725.467441 0-199.021697 199.021697-199.021697 526.441977 0 725.466185 199.022953 199.021697 526.444488 199.021697 725.467441 0C1080.177977 675.709505 1080.177977 348.289225 874.733714 149.267529L874.733714 149.267529zM675.710761 746.330107c-32.099018 32.102785-64.201803 57.78426-115.560985 64.201803l0 96.299565-70.623114 0L489.526662 810.531911c-44.936616-6.417543-83.456944-25.677707-109.138419-51.360438-32.099018-32.102785-51.359182-70.621858-57.780493-128.403607l109.138419-12.838854c0 25.682731 6.422566 44.941639 19.260164 57.780493 12.843877 12.840109 19.260164 25.681475 38.520328 32.100274l0-166.918911c-57.780493-19.260164-89.878255-38.520328-115.560985-70.62437-25.676451-32.097762-38.519073-70.61809-38.519073-115.559729 0-44.937871 12.842621-83.4582 44.941639-115.560985 25.681475-32.099018 64.201803-51.359182 109.138419-51.359182l0-57.779237 70.623114 0 0 57.779237c44.941639 6.417543 70.61809 19.260164 96.300821 44.937871 25.681475 25.681475 44.941639 57.78426 51.359182 96.304589l-109.138419 12.838854c-6.421311-32.099018-12.838854-51.359182-38.520328-64.201803l0 160.502624c64.201803 19.260164 102.722132 38.519073 128.398583 70.623114 25.681475 25.676451 38.520328 64.19678 38.520328 109.138419C720.6524 669.288195 707.809779 714.229834 675.710761 746.330107L675.710761 746.330107zM675.710761 746.330107" p-id="7975" fill="#f1711b"></path></svg>