<?xml version="1.0" standalone="no"?><!DOCTYPE svg PUBLIC "-//W3C//DTD SVG 1.1//EN" "http://www.w3.org/Graphics/SVG/1.1/DTD/svg11.dtd"><svg t="1497250767521" class="icon" style="" viewBox="0 0 1024 1024" version="1.1" xmlns="http://www.w3.org/2000/svg" p-id="1021" xmlns:xlink="http://www.w3.org/1999/xlink" width="44" height="44"><defs><style type="text/css">@font-face { font-family: uc-nexus-iconfont; src: url("chrome-extension://pogijhnlcfmcppgimcaccdkmbedjkmhi/res/font_9qmmi8b8jsxxbt9.woff") format("woff"), url("chrome-extension://pogijhnlcfmcppgimcaccdkmbedjkmhi/res/font_9qmmi8b8jsxxbt9.ttf") format("truetype"); }
</style></defs><path d="M511.999488 64.298422c-247.260453 0-447.696462 200.424752-447.696462 447.706695 0 247.238964 200.436008 447.696462 447.696462 447.696462s447.696462-200.457498 447.696462-447.696462C959.69595 264.723174 759.259942 64.298422 511.999488 64.298422zM511.999488 136.622634c247.610424 0 375.099027 203.430202 375.099027 375.295502l-171.820274-74.061786c-6.470365-3.016707-9.269108-10.711969-6.252401-17.182334l10.930957-23.477714c3.038196-6.470365 10.711969-9.269108 17.204847-6.252401l88.096431 41.097c-35.588543-139.992381-162.072259-243.653299-313.25654-243.653299-116.580159 0-218.449267 61.732993-275.482215 154.071028l-50.868551-15.171538C250.092453 213.526141 371.985618 136.622634 511.999488 136.622634zM665.458579 497.53352c1.266853 5.90243 1.901303 12.591783 1.901303 20.111037 0 9.225105-0.63445 16.963347-1.901303 23.258727L544.942785 540.903284l0 55.262628 120.515794 0c1.266853 5.859451 1.901303 12.547781 1.901303 20.111037 0 9.225105-0.63445 16.963347-1.901303 23.215748L544.942785 639.492696l0 98.633415c-5.007037 0.831948-10.231015 1.442862-15.696494 1.880837-5.421476 0.39295-10.885931 0.611937-16.307408 0.611937-5.442966 0-10.886955-0.218988-16.32992-0.611937-5.442966-0.437975-10.667967-1.048889-15.69547-1.880837l0-98.633415L365.426225 639.492696c-1.660826-5.027503-2.492774-12.109806-2.492774-21.335934 0-3.759627 0.196475-7.563256 0.61296-11.322883 0.415462-3.759627 1.048889-7.30129 1.879813-10.667967l115.50978 0 0-55.262628L365.426225 540.903284c-1.660826-5.027503-2.492774-12.153808-2.492774-21.379936 0-3.759627 0.174985-7.520277 0.61296-11.278881 0.415462-3.76065 1.048889-7.345292 1.879813-10.667967l90.391706 0L340.331687 294.059316c5.421476-0.830925 11.366885-1.486864 17.881253-1.879813 6.470365-0.436952 12.635785-0.611937 18.537192-0.611937 5.836939 0 11.891841 0.174985 18.187221 0.611937 6.27389 0.39295 11.914354 1.048889 16.942881 1.879813l102.939487 189.70255 101.059674-189.70255c5.442966-0.830925 10.973936-1.486864 16.635889-1.879813 5.640464-0.436952 11.389398-0.611937 17.269315-0.611937 5.836939 0 11.695367 0.174985 17.576307 0.611937 5.835915 0.39295 11.278881 1.048889 16.307408 1.879813l-113.607454 203.474204L665.458579 497.53352zM511.999488 887.257639c-232.613872 0-375.099027-188.740642-375.099027-375.339504l171.821297 74.105788c6.470365 3.016707 9.269108 10.711969 6.251378 17.182334l-10.929934 23.477714c-3.016707 6.470365-10.733459 9.269108-17.203824 6.251378l-88.096431-41.141002c35.610032 139.993404 162.072259 243.697301 313.25654 243.697301 116.557646 0 218.449267-61.732993 275.482215-154.114007l50.868551 15.214517C773.9055 810.353109 652.013359 887.257639 511.999488 887.257639z" p-id="1022" fill="#1296db"></path></svg>